<?xml version="1.0" encoding="utf-8"?>
<!-- Generator: Adobe Illustrator 24.3.0, SVG Export Plug-In . SVG Version: 6.00 Build 0)  -->
<svg version="1.1" id="Layer_1" xmlns="http://www.w3.org/2000/svg" xmlns:xlink="http://www.w3.org/1999/xlink" x="0px" y="0px"
	 width="595.3px" height="444.8px" viewBox="0 0 595.3 444.8" style="enable-background:new 0 0 595.3 444.8;" xml:space="preserve"
	>
<style type="text/css">
	.st0{fill:none;stroke:#FFFFFF;stroke-width:2;stroke-miterlimit:10;}
</style>
<g>
	<path class="st0" d="M49.3,265.2c1.9,0,3.2,0,4.5,0c38.7,0,77.3,0.1,116-0.1c3.8,0,4.6,1.1,4.6,4.6c-0.1,8.3,1,16.5,4.3,24.2
		c5.7,13.3,22.1,19.6,35.3,13.7c8.8-3.9,11.6-11.6,12.7-20.2c0.5-4.1,0.7-8.3,0.7-12.5c0-40.7,0-81.4,0-122c0-1.4,0-2.8,0-4.5
		c101.4,0,202.4,0,303.8,0c0,28,0,55.6,0,83.6c-36.4,0-72.6,0-109.1,0c0,16.6,0,32.9,0,49.5c41.3,0,82.4,0,123.9,0
		c0,29.5,0,58.7,0,88.4c-1.4,0.1-2.9,0.2-4.4,0.2c-69.5,0-139.1,0-208.6-0.1c-2.8,0-4.5,0.8-6.2,3.1c-18.5,24.9-43.6,39.5-73.5,45.9
		c-37.7,8-75.2,6.9-111.7-6.2c-45.5-16.4-74.5-48.3-86.4-95.3c-4-15.8-5.8-32-5.8-48.3C49.3,268.1,49.3,266.9,49.3,265.2z"/>
	<path class="st0" d="M546,17c0,29.1,0,58,0,87.1c-106.2,0-212.2,0-318.5,0c0-29,0-57.9,0-87.1C333.7,17,439.7,17,546,17z"/>
</g>
</svg>
