<?xml version="1.0" encoding="utf-8"?>
<!-- Generator: Adobe Illustrator 24.3.0, SVG Export Plug-In . SVG Version: 6.00 Build 0)  -->
<svg version="1.1" id="Layer_1" xmlns="http://www.w3.org/2000/svg" xmlns:xlink="http://www.w3.org/1999/xlink" x="0px" y="0px"
	 width="595.276px" height="444.8px" viewBox="0 0 595.276 444.8" style="enable-background:new 0 0 595.276 444.8;"
	 xml:space="preserve">
<style type="text/css">
	.st0{fill:#FFFFFF;}
</style>
<g>
	<path class="st0" d="M49.278,265.214c1.888,0,3.186,0,4.484,0c38.657,0,77.314,0.059,115.971-0.094
		c3.753-0.015,4.59,1.106,4.554,4.629c-0.085,8.297,0.998,16.476,4.299,24.204c5.686,13.312,22.06,19.623,35.299,13.706
		c8.763-3.917,11.575-11.59,12.711-20.198c0.545-4.132,0.676-8.343,0.681-12.518c0.047-40.679,0.028-81.358,0.028-122.037
		c0-1.413,0-2.826,0-4.456c101.39,0,202.448,0,303.813,0c0,27.961,0,55.606,0,83.603c-36.377,0-72.585,0-109.098,0
		c0,16.635,0,32.92,0,49.497c41.294,0,82.426,0,123.88,0c0,29.516,0,58.743,0,88.406c-1.414,0.08-2.904,0.239-4.394,0.239
		c-69.535,0-139.07,0.004-208.604-0.084c-2.801-0.004-4.495,0.826-6.186,3.105c-18.467,24.905-43.613,39.499-73.504,45.872
		c-37.693,8.037-75.245,6.893-111.673-6.21c-45.468-16.355-74.547-48.251-86.42-95.335c-3.991-15.824-5.757-31.955-5.838-48.27
		C49.273,268.098,49.278,266.924,49.278,265.214z"/>
	<path class="st0" d="M546,17.005c0,29.071,0,57.964,0,87.124c-106.166,0-212.233,0-318.499,0c0-29.018,0-57.917,0-87.124
		C333.653,17.005,439.716,17.005,546,17.005z"/>
</g>
</svg>
